<svg width="159" height="60" viewBox="0 0 159 60" fill="none" xmlns="http://www.w3.org/2000/svg">
<path d="M-0.000110626 1.52588e-05H6.72716L22.5453 38.6364H23.0908L38.909 1.52588e-05H45.6363V46.5455H40.3635V11.1818H39.909L25.3635 46.5455H20.2726L5.72716 11.1818H5.27262V46.5455H-0.000110626V1.52588e-05ZM70.8465 47.2727C67.4828 47.2727 64.5813 46.5303 62.1419 45.0455C59.7177 43.5455 57.8465 41.4546 56.5283 38.7727C55.2253 36.0758 54.5738 32.9394 54.5738 29.3637C54.5738 25.7879 55.2253 22.6364 56.5283 19.9091C57.8465 17.1667 59.6798 15.0303 62.0283 13.5C64.3919 11.9546 67.1495 11.1818 70.301 11.1818C72.1192 11.1818 73.9147 11.4849 75.6874 12.0909C77.4601 12.697 79.0738 13.6818 80.5283 15.0455C81.9828 16.394 83.1419 18.1818 84.0056 20.4091C84.8692 22.6364 85.301 25.3788 85.301 28.6364V30.9091H58.3919V26.2727H79.8465C79.8465 24.303 79.4525 22.5455 78.6647 21C77.8919 19.4546 76.7859 18.2349 75.3465 17.3409C73.9222 16.447 72.2404 16 70.301 16C68.1647 16 66.3162 16.5303 64.7556 17.5909C63.2101 18.6364 62.0207 20 61.1874 21.6818C60.3541 23.3637 59.9374 25.1667 59.9374 27.0909V30.1818C59.9374 32.8182 60.3919 35.053 61.301 36.8864C62.2253 38.7046 63.5056 40.0909 65.1419 41.0455C66.7783 41.9849 68.6798 42.4546 70.8465 42.4546C72.2556 42.4546 73.5283 42.2576 74.6647 41.8637C75.8162 41.4546 76.8086 40.8485 77.6419 40.0455C78.4753 39.2273 79.1192 38.2121 79.5738 37L84.7556 38.4546C84.2101 40.2121 83.2935 41.7576 82.0056 43.0909C80.7177 44.4091 79.1268 45.4394 77.2328 46.1818C75.3389 46.9091 73.2101 47.2727 70.8465 47.2727ZM98.8238 25.5455V46.5455H93.4601V11.6364H98.6419V17.0909H99.0965C99.9147 15.3182 101.157 13.894 102.824 12.8182C104.49 11.7273 106.642 11.1818 109.278 11.1818C111.642 11.1818 113.71 11.6667 115.483 12.6364C117.256 13.5909 118.634 15.0455 119.619 17C120.604 18.9394 121.096 21.394 121.096 24.3637V46.5455H115.733V24.7273C115.733 21.9849 115.021 19.8485 113.596 18.3182C112.172 16.7727 110.218 16 107.733 16C106.021 16 104.49 16.3712 103.142 17.1137C101.809 17.8561 100.756 18.9394 99.9828 20.3637C99.2101 21.7879 98.8238 23.5152 98.8238 25.5455ZM133.102 59.6364C132.193 59.6364 131.382 59.5606 130.67 59.4091C129.958 59.2727 129.466 59.1364 129.193 59L130.557 54.2727C131.86 54.6061 133.011 54.7273 134.011 54.6364C135.011 54.5455 135.898 54.0985 136.67 53.2955C137.458 52.5076 138.178 51.2273 138.829 49.4546L139.829 46.7273L126.92 11.6364H132.739L142.375 39.4546H142.739L152.375 11.6364H158.193L143.375 51.6364C142.708 53.4394 141.882 54.9318 140.898 56.1137C139.913 57.3106 138.769 58.197 137.466 58.7727C136.178 59.3485 134.723 59.6364 133.102 59.6364Z" fill="black"/>
</svg>
