<svg width="115" height="60" viewBox="0 0 115 60" fill="none" xmlns="http://www.w3.org/2000/svg">
<g clip-path="url(#clip0_2_87)">
<path d="M39.0868 13.71L38.2912 13.2C37.1827 12.48 35.9064 11.7956 34.5698 11.2219L34.402 11.1581L34.3869 11.1506C33.8194 10.9163 33.2369 10.6913 32.6543 10.4925C31.4516 10.065 30.0131 9.69751 28.5351 9.45751L28.388 9.43688C27.7753 9.34126 27.1494 9.26626 26.5292 9.21376C25.8693 9.15563 25.1039 9.12188 24.3291 9.12188C23.5543 9.12188 22.7889 9.15563 22.031 9.21938L22.129 9.21188C21.5088 9.26251 20.8829 9.33751 20.2702 9.43501C18.6432 9.69563 17.2066 10.0631 15.8229 10.5431L16.002 10.4888C15.4194 10.6875 14.8388 10.9069 14.2751 11.1431L14.2543 11.1506C12.7499 11.79 11.4736 12.4744 10.2652 13.2544L10.3651 13.1944L9.56762 13.7044L5.61049 6.20438L6.29672 5.78063C7.44861 5.05501 8.80221 4.33126 10.2067 3.69938L10.4216 3.61313L11.1644 3.28501L12.5859 5.97938C12.9856 5.81813 13.3909 5.66438 13.7981 5.52001L13.0685 2.56876L13.8396 2.32313C15.0763 1.90876 16.5996 1.52251 18.1587 1.24313L18.368 1.21126L19.1616 1.06876L19.8912 4.02001L20.1043 3.99188C20.4587 3.94313 20.8225 3.90188 21.1826 3.86626V0.826881L21.9914 0.772506C22.7719 0.720006 23.5561 0.693756 24.3272 0.693756C25.0983 0.693756 25.8807 0.720006 26.6574 0.772506L27.4662 0.826881V3.86626C27.896 3.90938 28.3277 3.96188 28.7557 4.02188L29.4852 1.07063L30.2846 1.20938C32.0529 1.52063 33.5762 1.90688 35.0561 2.39063L34.813 2.32126L35.584 2.56688L34.8525 5.52188C35.2598 5.66626 35.6651 5.82001 36.0648 5.98126L37.4862 3.28501L38.229 3.61313C39.8466 4.33126 41.2002 5.05501 42.4953 5.86313L42.3539 5.78063L43.0402 6.20438L39.0868 13.71ZM7.90861 6.84188L10.235 11.25C11.1625 10.6875 12.2616 10.125 13.4003 9.63376L13.5794 9.56438L13.6058 9.55313C14.2016 9.30188 14.8218 9.06751 15.4439 8.85001C16.7297 8.39626 18.2643 8.00813 19.8441 7.75313L20.0006 7.73251C20.6566 7.62938 21.3221 7.54876 21.9857 7.49813C22.6889 7.43626 23.5052 7.40063 24.331 7.40063C25.1567 7.40063 25.973 7.43626 26.7818 7.50376L26.6762 7.49626C27.338 7.55063 28.0053 7.63126 28.6614 7.73063C30.3977 8.00626 31.9323 8.39626 33.4103 8.90813L33.218 8.85001C33.8402 9.06001 34.4604 9.29626 35.0618 9.55313L35.0825 9.56063C36.4003 10.1194 37.4994 10.6838 38.5514 11.3138L38.427 11.2444L40.7534 6.83813C39.9446 6.36938 39.1151 5.93063 38.2705 5.53126L36.8641 8.19751L36.1251 7.87688L35.8291 7.75126C35.0901 7.44001 34.3247 7.15501 33.5555 6.90376L32.792 6.65251L33.5159 3.73126C32.6185 3.46876 31.7061 3.24563 30.788 3.06188L30.064 5.98313L29.2703 5.85563C28.3692 5.70376 27.4511 5.59501 26.5424 5.52751L25.7374 5.46938V2.45813C24.7948 2.41876 23.8691 2.41876 22.9284 2.45813V5.46563L22.1234 5.52376C21.5333 5.56688 20.9338 5.62876 20.3456 5.70751C20.0289 5.75063 19.7084 5.79938 19.3935 5.85188L18.5998 5.98501L17.8759 3.06376C16.9578 3.24751 16.0453 3.47251 15.148 3.73313L15.8719 6.65438L15.1084 6.91126C14.3411 7.16251 13.5757 7.44751 12.8366 7.75876L11.7998 8.20126L10.3934 5.53501C9.54877 5.93438 8.71738 6.37126 7.91049 6.84001L7.90861 6.84188Z" fill="black"/>
<path d="M24.3178 59.2969C10.8628 59.2969 -0.0433617 48.45 -0.0433617 35.0681C-0.0433617 21.6862 10.8628 10.8394 24.3178 10.8394C37.7728 10.8394 48.6789 21.6862 48.6789 35.0681C48.6789 41.7581 45.9529 47.8162 41.5433 52.2C37.1582 56.5837 31.0896 59.295 24.3819 59.295C24.3593 59.295 24.3366 59.295 24.314 59.295L24.3178 59.2969ZM24.3178 12.6469C24.3159 12.6469 24.3121 12.6469 24.3102 12.6469C11.8601 12.6469 1.76647 22.6856 1.76647 35.0681C1.76647 47.4506 11.8601 57.4894 24.3102 57.4894C36.7604 57.4894 46.854 47.4506 46.854 35.0681C46.854 28.8787 44.3334 23.2762 40.2557 19.2187C36.1986 15.1594 30.5787 12.6469 24.3706 12.6469C24.3517 12.6469 24.3329 12.6469 24.3159 12.6469H24.3178Z" fill="black"/>
<path d="M19.6348 28.1794C18.9147 27.225 18.4811 26.0212 18.4811 24.7181C18.4811 21.5156 21.0902 18.9206 24.3102 18.9206C27.5302 18.9206 30.1394 21.5156 30.1394 24.7181C30.1394 26.0231 29.7058 27.2269 28.9743 28.1944L28.9857 28.1794L30.2695 29.1319C31.1876 27.915 31.7419 26.3812 31.7419 24.7162C31.7419 20.6344 28.4144 17.325 24.3102 17.325C20.2061 17.325 16.8786 20.6344 16.8786 24.7162C16.8786 26.3794 17.431 27.915 18.3642 29.1506L18.351 29.1319L19.6348 28.1794Z" fill="black"/>
<path d="M24.3065 29.9475C25.9108 29.9456 27.2098 28.6519 27.2116 27.0581V26.7731H28.1712V24.93C28.1712 22.8075 26.4406 21.0881 24.3084 21.0881C22.1761 21.0881 20.4455 22.8094 20.4455 24.93V26.7731H21.4051V27.0581C21.407 28.6537 22.7059 29.9456 24.3102 29.9475H24.3065ZM22.0461 24.93C22.0461 23.6887 23.0584 22.6819 24.3065 22.6819C25.5545 22.6819 26.5669 23.6887 26.5669 24.93V26.7731H25.8788V27.0581C25.8788 27.0712 25.8788 27.0862 25.8788 27.1012C25.8788 27.9637 25.1756 28.6631 24.3084 28.6631C23.4411 28.6631 22.738 27.9637 22.738 27.1012C22.738 27.0862 22.738 27.0712 22.738 27.0562V26.7731H22.0479L22.0461 24.93Z" fill="black"/>
<path d="M7.67295 36.1725H9.90885V38.3963H7.67295V36.1725Z" fill="black"/>
<path d="M42.3125 34.4456V35.64H43.4587L40.3461 38.7356V33.3506L41.1436 34.1456L41.9939 33.3L39.7466 31.065L37.4862 33.3131L38.3365 34.1587L39.1471 33.3525V38.7319L36.0402 35.6419H37.1695V34.4475H33.9872V37.6275H35.19V36.4875L37.6125 38.8987H32.726L32.217 38.4469L31.7815 34.4869C31.7607 34.2712 31.5232 32.235 29.8189 31.3631L29.7793 31.3425L28.0562 30.69L27.7942 30.5944L27.5302 30.6769C27.5189 30.6769 26.3897 31.0294 24.3084 31.0294C22.227 31.0294 21.0978 30.6844 21.0902 30.6769L20.8225 30.5906L18.8355 31.3406L18.7959 31.3612C17.0935 32.2312 16.856 34.2694 16.8352 34.485L16.3847 38.5875L16.0133 38.8987H14.3166C14.4636 38.4169 14.5484 37.8619 14.5484 37.2862C14.5484 34.125 11.9713 31.5619 8.79279 31.5619C5.61426 31.5619 3.03713 34.125 3.03713 37.2862C3.03713 40.1381 5.13353 42.5025 7.87844 42.9394L7.91049 42.9431L7.98402 42.9506C8.13672 42.9712 8.28943 42.9881 8.4459 42.9975L15.9077 43.7456C15.427 48.0581 14.4297 51.1294 14.4202 51.1612L15.9416 51.6562C15.9869 51.5175 17.0125 48.3637 17.5083 43.8487L19.1843 42.4331L18.9298 52.7756L19.6028 52.8994C21.0205 53.1562 22.6531 53.3025 24.3197 53.3025C26.0126 53.3025 27.6698 53.1506 29.2779 52.8619L29.1101 52.8862L29.7793 52.7606L29.5229 42.4331L31.2102 43.8562C31.7042 48.3675 32.7298 51.5175 32.775 51.6544L34.2983 51.1594C34.287 51.1275 33.2916 48.0694 32.8108 43.7512L40.3198 43.0556V40.455L44.3108 36.4856V37.6087H45.5117V34.4437L42.3125 34.4456ZM24.3065 32.6175C26.056 32.6175 27.2211 32.3944 27.7244 32.265L29.1176 32.7919C30.0489 33.3 30.1771 34.6144 30.1771 34.6237L30.5221 37.755H28.5898C28.5766 37.755 28.5615 37.755 28.5483 37.755C27.7414 37.755 26.9873 37.53 26.3482 37.1381L26.367 37.1494C25.8693 36.8475 25.2302 36.1106 25.0285 35.8519L22.3175 32.5087C22.9114 32.5781 23.5995 32.6194 24.297 32.6194C24.3008 32.6194 24.3046 32.6194 24.3084 32.6194L24.3065 32.6175ZM8.79467 41.4169C8.7268 41.4169 8.65894 41.4169 8.58918 41.4112L8.15557 41.3681C6.15344 41.0494 4.64336 39.345 4.64336 37.2881C4.64336 35.0081 6.50221 33.1594 8.79467 33.1594C11.0871 33.1594 12.946 35.0081 12.946 37.2881C12.946 39.5681 11.0871 41.4169 8.79467 41.4169C8.79279 41.4169 8.7909 41.4169 8.7909 41.4169H8.79467ZM19.2389 40.3012L16.9257 42.2475L12.337 41.7862C12.8084 41.4169 13.2118 40.9894 13.5436 40.5094L13.5568 40.4906H16.592L19.2842 38.2387L19.2389 40.3012ZM19.3577 36.0956H19.337V36.1125L18.1587 37.0987L18.4283 34.65V34.6275C18.4283 34.6125 18.5602 33.3019 19.4897 32.7956L20.2532 32.5069L21.6238 34.1981L19.3577 36.0956ZM24.3159 51.7087C22.9906 51.7069 21.6898 51.6112 20.4153 51.4275L20.5605 51.4444L20.6434 48.0637L20.9149 36.8719L22.6267 35.4431L23.7616 36.8437C23.8804 36.9844 24.7043 38.0156 25.53 38.5162C26.1917 38.925 26.9741 39.2062 27.8111 39.3075L27.8394 39.3094L28.1392 51.4331C26.9911 51.6056 25.6657 51.705 24.3178 51.7069L24.3159 51.7087ZM38.7116 41.6081L31.7702 42.2512L28.3334 39.3506C28.4163 39.3506 28.5011 39.3562 28.586 39.3562H30.8257L32.1039 40.4925H38.7022L38.7116 41.6081Z" fill="black"/>
<path d="M62.2979 34.0163C62.2979 28.1063 66.0383 24.4875 70.6232 24.4875C75.2081 24.4875 78.9484 28.1044 78.9484 34.0163C78.9484 40.1306 75.2081 43.8 70.6232 43.8C66.0383 43.8 62.2979 40.1306 62.2979 34.0163ZM76.5919 34.0163C76.5919 28.9219 73.9544 26.6325 70.6232 26.6325C67.324 26.6325 64.6545 28.9256 64.6545 34.0163C64.6545 39.1069 67.3957 41.6588 70.6232 41.6588C73.8507 41.6588 76.5919 39.1106 76.5919 34.0163Z" fill="black"/>
<path d="M86.8778 29.8125C89.387 29.8125 91.2384 30.9075 91.9453 32.6925L90.2807 33.5325C89.717 32.3344 88.4878 31.6725 86.8231 31.6725C85.0811 31.6725 83.9293 32.3606 83.9293 33.5063C83.9293 34.5 84.5684 35.0869 86.0294 35.3925L88.0014 35.775C90.948 36.3619 92.362 37.6613 92.362 39.6994C92.362 42.12 90.2109 43.7756 87.0343 43.7756C84.2667 43.7756 82.2948 42.705 81.322 40.7175L83.013 39.825C83.7049 41.2013 85.0623 41.94 86.9834 41.94C88.9289 41.94 90.2373 41.0981 90.2373 39.825C90.2373 38.7038 89.5718 38.0925 88.0089 37.7606L85.6788 37.3031C83.1676 36.7931 81.8102 35.52 81.8102 33.66C81.8102 31.4681 83.8859 29.8125 86.8834 29.8125H86.8778Z" fill="black"/>
<path d="M99.0961 43.6987C96.7904 43.6987 95.6894 42.2925 95.6894 40.1062V24.7181H97.8933V40.0031C97.8933 41.175 98.5343 41.7356 99.6107 41.7356C99.6202 41.7356 99.6296 41.7356 99.6409 41.7356C99.9237 41.7356 100.197 41.6981 100.457 41.6287L100.435 41.6344V43.5206C100.037 43.6238 99.5768 43.6894 99.1036 43.6987H99.0961Z" fill="black"/>
<path d="M102.299 36.7669C102.299 32.5631 105.067 29.8125 108.524 29.8125C111.957 29.8125 114.723 32.5631 114.723 36.7669C114.723 41.0475 111.931 43.7981 108.524 43.7981C105.091 43.8 102.299 41.0475 102.299 36.7669ZM112.442 36.7669C112.442 33.3281 110.649 31.7269 108.522 31.7269C106.371 31.7269 104.576 33.3319 104.576 36.7669C104.576 40.2019 106.345 41.8875 108.522 41.8875C110.673 41.8875 112.442 40.2056 112.442 36.7669Z" fill="black"/>
</g>
<defs>
<clipPath id="clip0_2_87">
<rect width="115" height="60" fill="white"/>
</clipPath>
</defs>
</svg>
