<svg width="67" height="67" viewBox="0 0 67 67" fill="none" xmlns="http://www.w3.org/2000/svg">
<rect width="67" height="67" rx="33.5" fill="#D4E2FF"/>
<path fill-rule="evenodd" clip-rule="evenodd" d="M43.5507 26.8C43.5507 32.3505 39.0511 36.85 33.5007 36.85C27.9502 36.85 23.4507 32.3505 23.4507 26.8C23.4507 21.2495 27.9502 16.75 33.5007 16.75C39.0511 16.75 43.5507 21.2495 43.5507 26.8ZM40.2007 26.8C40.2007 30.5003 37.201 33.5 33.5007 33.5C29.8003 33.5 26.8007 30.5003 26.8007 26.8C26.8007 23.0997 29.8003 20.1 33.5007 20.1C37.201 20.1 40.2007 23.0997 40.2007 26.8Z" fill="#21005D"/>
<path d="M33.5007 41.875C22.6561 41.875 13.4162 48.2876 9.89648 57.2717C10.7539 58.1231 11.6571 58.9284 12.6022 59.6837C15.2231 51.4354 23.4452 45.225 33.5007 45.225C43.5562 45.225 51.7782 51.4354 54.3992 59.6837C55.3442 58.9285 56.2474 58.1231 57.1048 57.2717C53.5851 48.2876 44.3453 41.875 33.5007 41.875Z" fill="#21005D"/>
</svg>
