<svg width="52" height="55" viewBox="0 0 52 55" fill="none" xmlns="http://www.w3.org/2000/svg">
<path d="M29.7483 48.875C29.3674 49.4938 28.8207 50.0074 28.1628 50.3645C27.505 50.7215 26.7592 50.9094 26 50.9094C25.2408 50.9094 24.495 50.7215 23.8372 50.3645C23.1793 50.0074 22.6326 49.4938 22.2517 48.875M39 22.3333C39 19.0844 37.6304 15.9686 35.1924 13.6713C32.7544 11.374 29.4478 10.0833 26 10.0833C22.5522 10.0833 19.2456 11.374 16.8076 13.6713C14.3696 15.9686 13 19.0844 13 22.3333C13 36.625 6.5 40.7083 6.5 40.7083H45.5C45.5 40.7083 39 36.625 39 22.3333Z" stroke="#1E1E1E" stroke-width="3.5" stroke-linecap="round" stroke-linejoin="round"/>
<rect x="26" width="21" height="23" rx="10.5" fill="#B3261E"/>
<path d="M35.4849 11.0044H36.2583C36.5591 11.0044 36.8079 10.9525 37.0049 10.8486C37.2054 10.7448 37.354 10.6016 37.4507 10.4189C37.5474 10.2363 37.5957 10.0269 37.5957 9.79053C37.5957 9.54346 37.5509 9.33219 37.4614 9.15674C37.3755 8.9777 37.243 8.83984 37.064 8.74316C36.8885 8.64648 36.6647 8.59814 36.3926 8.59814C36.1634 8.59814 35.9557 8.64469 35.7695 8.73779C35.5869 8.82731 35.4419 8.95622 35.3345 9.12451C35.2271 9.28923 35.1733 9.48617 35.1733 9.71533H33.8735C33.8735 9.29997 33.9827 8.93115 34.2012 8.60889C34.4196 8.28662 34.7168 8.03418 35.0928 7.85156C35.4723 7.66536 35.8984 7.57227 36.3711 7.57227C36.876 7.57227 37.3164 7.65641 37.6924 7.82471C38.0719 7.98942 38.3674 8.23649 38.5786 8.56592C38.7899 8.89535 38.8955 9.30355 38.8955 9.79053C38.8955 10.0125 38.8436 10.2381 38.7397 10.4673C38.6359 10.6965 38.4819 10.9059 38.2778 11.0957C38.0737 11.2819 37.8195 11.4341 37.5151 11.5522C37.2108 11.6668 36.8581 11.7241 36.457 11.7241H35.4849V11.0044ZM35.4849 12.0142V11.3052H36.457C36.9154 11.3052 37.3057 11.3589 37.6279 11.4663C37.9538 11.5737 38.2188 11.7223 38.4229 11.9121C38.627 12.0983 38.7756 12.3114 38.8687 12.5513C38.9653 12.7912 39.0137 13.0454 39.0137 13.314C39.0137 13.6792 38.9474 14.005 38.8149 14.2915C38.686 14.5744 38.5016 14.8143 38.2617 15.0112C38.0218 15.2082 37.7407 15.3568 37.4185 15.457C37.0998 15.5573 36.7524 15.6074 36.3765 15.6074C36.0399 15.6074 35.7176 15.5609 35.4097 15.4678C35.1017 15.3747 34.826 15.2368 34.5825 15.0542C34.339 14.868 34.1457 14.637 34.0024 14.3613C33.8628 14.082 33.793 13.7598 33.793 13.3945H35.0874C35.0874 13.6273 35.1411 13.8332 35.2485 14.0122C35.3595 14.1877 35.5135 14.3255 35.7104 14.4258C35.911 14.526 36.1401 14.5762 36.3979 14.5762C36.6701 14.5762 36.9046 14.5278 37.1016 14.4312C37.2985 14.3345 37.4489 14.1912 37.5527 14.0015C37.6602 13.8117 37.7139 13.5825 37.7139 13.314C37.7139 13.0096 37.6548 12.7625 37.5366 12.5728C37.4185 12.383 37.2502 12.2433 37.0317 12.1538C36.8133 12.0607 36.5555 12.0142 36.2583 12.0142H35.4849Z" fill="white"/>
</svg>
