<svg width="173" height="90" viewBox="0 0 173 90" fill="none" xmlns="http://www.w3.org/2000/svg">
<g clip-path="url(#clip0_87_831)">
<path d="M58.8 20.5649L57.6031 19.7999C55.9355 18.7199 54.0155 17.6933 52.0047 16.8327L51.7523 16.7371L51.7296 16.7258C50.876 16.3743 49.9996 16.0368 49.1233 15.7387C47.3139 15.0974 45.15 14.5462 42.9265 14.1862L42.7053 14.1552C41.7836 14.0118 40.842 13.8993 39.9089 13.8205C38.9163 13.7333 37.7649 13.6827 36.5992 13.6827C35.4336 13.6827 34.2822 13.7333 33.1421 13.829L33.2895 13.8177C32.3565 13.8937 31.4149 14.0062 30.4932 14.1524C28.0457 14.5433 25.8846 15.0946 23.8029 15.8146L24.0723 15.733C23.196 16.0311 22.3225 16.3602 21.4745 16.7146L21.4433 16.7258C19.1801 17.6849 17.2601 18.7115 15.4422 19.8815L15.5925 19.7915L14.3928 20.5565L8.43994 9.30646L9.47227 8.67084C11.2051 7.5824 13.2414 6.49678 15.3543 5.54896L15.6776 5.41959L16.795 4.9274L18.9334 8.96896C19.5346 8.72709 20.1444 8.49646 20.757 8.2799L19.6594 3.85303L20.8194 3.48459C22.6798 2.86303 24.9714 2.28365 27.3168 1.86459L27.6316 1.81678L28.8256 1.60303L29.9231 6.0299L30.2436 5.98771C30.7768 5.91459 31.3242 5.85271 31.8658 5.79928V1.24021L33.0825 1.15865C34.2566 1.0799 35.4365 1.04053 36.5964 1.04053C37.7564 1.04053 38.9333 1.0799 40.1018 1.15865L41.3185 1.24021V5.79928C41.9651 5.86396 42.6145 5.94271 43.2583 6.03271L44.3559 1.60584L45.5584 1.81396C48.2186 2.28084 50.5101 2.86021 52.7364 3.58584L52.3706 3.48178L53.5305 3.85021L52.4302 8.28271C53.0427 8.49928 53.6525 8.7299 54.2537 8.97178L56.3921 4.9274L57.5095 5.41959C59.9429 6.49678 61.9792 7.5824 63.9276 8.79459L63.7149 8.67084L64.7472 9.30646L58.8 20.5649ZM11.8971 10.2627L15.3968 16.8749C16.7922 16.0311 18.4456 15.1874 20.1586 14.4505L20.428 14.3465L20.4677 14.3296C21.3639 13.9527 22.297 13.6011 23.2329 13.2749C25.1671 12.5943 27.4756 12.0121 29.8522 11.6296L30.0876 11.5987C31.0746 11.444 32.0757 11.323 33.074 11.2471C34.1319 11.1543 35.3599 11.1008 36.6021 11.1008C37.8443 11.1008 39.0723 11.1543 40.289 11.2555L40.1301 11.2443C41.1256 11.3258 42.1296 11.4468 43.1165 11.5958C45.7285 12.0093 48.0371 12.5943 50.2606 13.3621L49.9713 13.2749C50.9072 13.5899 51.8403 13.9443 52.745 14.3296L52.7762 14.3408C54.7586 15.179 56.412 16.0255 57.9945 16.9705L57.8073 16.8665L61.307 10.2571C60.0904 9.55396 58.8425 8.89584 57.5719 8.29678L55.4562 12.2962L54.3445 11.8152L53.8992 11.6268C52.7875 11.1599 51.6361 10.7324 50.4789 10.3555L49.3303 9.97865L50.4194 5.59678C49.0694 5.20303 47.6968 4.86834 46.3156 4.59271L45.2265 8.97459L44.0326 8.78334C42.6769 8.55553 41.2958 8.3924 39.9288 8.29115L38.7178 8.20396V3.68709C37.2997 3.62803 35.9072 3.62803 34.492 3.68709V8.19834L33.281 8.28553C32.3934 8.35021 31.4915 8.44303 30.6066 8.56115C30.1302 8.62584 29.648 8.69896 29.1744 8.77771L27.9804 8.9774L26.8914 4.59553C25.5102 4.87115 24.1376 5.20865 22.7876 5.59959L23.8766 9.98146L22.728 10.3668C21.5738 10.7437 20.4223 11.1712 19.3106 11.638L17.7507 12.3018L15.635 8.3024C14.3645 8.90146 13.1138 9.55678 11.8999 10.2599L11.8971 10.2627Z" fill="black"/>
<path d="M36.5822 88.9453C16.3412 88.9453 -0.0654297 72.675 -0.0654297 52.6022C-0.0654297 32.5293 16.3412 16.259 36.5822 16.259C56.8232 16.259 73.2298 32.5293 73.2298 52.6022C73.2298 62.6372 69.1289 71.7243 62.4953 78.3C55.8986 84.8756 46.7694 88.9425 36.6786 88.9425C36.6446 88.9425 36.6106 88.9425 36.5765 88.9425L36.5822 88.9453ZM36.5822 18.9703C36.5794 18.9703 36.5737 18.9703 36.5709 18.9703C17.8415 18.9703 2.65719 34.0284 2.65719 52.6022C2.65719 71.1759 17.8415 86.234 36.5709 86.234C55.3002 86.234 70.4845 71.1759 70.4845 52.6022C70.4845 43.3181 66.6927 34.9143 60.5583 28.8281C54.4551 22.739 46.0008 18.9703 36.6616 18.9703C36.6333 18.9703 36.6049 18.9703 36.5794 18.9703H36.5822Z" fill="black"/>
<path d="M29.5374 42.2691C28.4541 40.8376 27.8018 39.0319 27.8018 37.0772C27.8018 32.2735 31.7269 28.381 36.5709 28.381C41.4149 28.381 45.34 32.2735 45.34 37.0772C45.34 39.0347 44.6877 40.8404 43.5873 42.2916L43.6043 42.2691L45.5357 43.6979C46.9168 41.8725 47.7507 39.5719 47.7507 37.0744C47.7507 30.9516 42.745 25.9875 36.5709 25.9875C30.3968 25.9875 25.3911 30.9516 25.3911 37.0744C25.3911 39.5691 26.2221 41.8725 27.6259 43.726L27.6061 43.6979L29.5374 42.2691Z" fill="black"/>
<path d="M36.5656 44.9211C38.9791 44.9183 40.9331 42.9777 40.936 40.5871V40.1596H42.3795V37.3949C42.3795 34.2111 39.776 31.6321 36.5684 31.6321C33.3608 31.6321 30.7573 34.214 30.7573 37.3949V40.1596H32.2009V40.5871C32.2037 42.9805 34.1578 44.9183 36.5713 44.9211H36.5656ZM33.1651 37.3949C33.1651 35.533 34.6881 34.0227 36.5656 34.0227C38.4431 34.0227 39.966 35.533 39.966 37.3949V40.1596H38.9309V40.5871C38.9309 40.6068 38.9309 40.6293 38.9309 40.6518C38.9309 41.9455 37.873 42.9946 36.5684 42.9946C35.2638 42.9946 34.206 41.9455 34.206 40.6518C34.206 40.6293 34.206 40.6068 34.206 40.5843V40.1596H33.168L33.1651 37.3949Z" fill="black"/>
<path d="M11.543 54.2588H14.9065V57.5944H11.543V54.2588Z" fill="black"/>
<path d="M63.6526 51.6685V53.46H65.3769L60.6946 58.1035V50.026L61.8942 51.2185L63.1733 49.95L59.7927 46.5975L56.3923 49.9697L57.6713 51.2382L58.8908 50.0288V58.0979L54.217 53.4629H55.9158V51.6713H51.1285V56.4413H52.9379V54.7313L56.5823 58.3482H49.2312L48.4655 57.6704L47.8103 51.7304C47.7791 51.4069 47.4218 48.3525 44.858 47.0447L44.7984 47.0138L42.2063 46.035L41.8121 45.8916L41.415 46.0154C41.398 46.0154 39.6992 46.5441 36.5682 46.5441C33.4372 46.5441 31.7384 46.0266 31.727 46.0154L31.3243 45.886L28.3351 47.011L28.2755 47.0419C25.7146 48.3469 25.3572 51.4041 25.326 51.7275L24.6482 57.8813L24.0895 58.3482H21.537C21.7582 57.6254 21.8859 56.7929 21.8859 55.9294C21.8859 51.1875 18.009 47.3429 13.2274 47.3429C8.44575 47.3429 4.56885 51.1875 4.56885 55.9294C4.56885 60.2072 7.72255 63.7538 11.8519 64.4091L11.9001 64.4147L12.0107 64.426C12.2404 64.4569 12.4701 64.4822 12.7055 64.4963L23.9307 65.6185C23.2075 72.0872 21.7072 76.6941 21.693 76.7419L23.9817 77.4844C24.0498 77.2763 25.5926 72.5457 26.3385 65.7732L28.8597 63.6497L28.4769 79.1635L29.4894 79.3491C31.6221 79.7344 34.0781 79.9538 36.5852 79.9538C39.132 79.9538 41.6249 79.726 44.044 79.2929L43.7916 79.3294L44.7984 79.141L44.4127 63.6497L46.951 65.7844C47.6941 72.5513 49.2369 77.2763 49.3049 77.4816L51.5965 76.7391C51.5795 76.6913 50.082 72.1041 49.3588 65.6269L60.6549 64.5835V60.6825L66.6588 54.7285V56.4132H68.4654V51.6657L63.6526 51.6685ZM36.5653 48.9263C39.1972 48.9263 40.9499 48.5916 41.7071 48.3975L43.803 49.1879C45.204 49.95 45.3968 51.9216 45.3968 51.9357L45.9158 56.6325H43.0089C42.989 56.6325 42.9663 56.6325 42.9465 56.6325C41.7327 56.6325 40.5982 56.295 39.6368 55.7072L39.6652 55.7241C38.9164 55.2713 37.955 54.166 37.6516 53.7779L33.5733 48.7632C34.4667 48.8672 35.5018 48.9291 36.5512 48.9291C36.5568 48.9291 36.5625 48.9291 36.5682 48.9291L36.5653 48.9263ZM13.2302 62.1254C13.1281 62.1254 13.026 62.1254 12.9211 62.1169L12.2688 62.0522C9.25686 61.5741 6.98518 59.0175 6.98518 55.9322C6.98518 52.5122 9.78154 49.7391 13.2302 49.7391C16.6788 49.7391 19.4752 52.5122 19.4752 55.9322C19.4752 59.3522 16.6788 62.1254 13.2302 62.1254C13.2274 62.1254 13.2245 62.1254 13.2245 62.1254H13.2302ZM28.942 60.4519L25.4621 63.3713L18.5592 62.6794C19.2682 62.1254 19.8751 61.4841 20.3742 60.7641L20.3941 60.736H24.9602L29.0101 57.3582L28.942 60.4519ZM29.1207 54.1435H29.0895V54.1688L27.3169 55.6482L27.7225 51.975V51.9413C27.7225 51.9188 27.921 49.9529 29.3192 49.1935L30.4678 48.7604L32.5296 51.2972L29.1207 54.1435ZM36.5795 77.5632C34.5858 77.5604 32.6289 77.4169 30.7117 77.1413L30.9301 77.1666L31.0549 72.0957L31.4633 55.3079L34.0384 53.1647L35.7457 55.2657C35.9244 55.4766 37.1637 57.0235 38.4059 57.7744C39.4014 58.3875 40.5784 58.8094 41.8376 58.9613L41.8801 58.9641L42.3311 77.1497C40.6039 77.4085 38.6101 77.5575 36.5824 77.5604L36.5795 77.5632ZM58.2357 62.4122L47.7933 63.3769L42.6232 59.026C42.748 59.026 42.8756 59.0344 43.0032 59.0344H46.3725L48.2953 60.7388H58.2215L58.2357 62.4122Z" fill="black"/>
<path d="M93.7178 51.0243C93.7178 42.1593 99.3445 36.7312 106.242 36.7312C113.139 36.7312 118.766 42.1565 118.766 51.0243C118.766 60.1959 113.139 65.7 106.242 65.7C99.3445 65.7 93.7178 60.1959 93.7178 51.0243ZM115.221 51.0243C115.221 43.3828 111.253 39.9487 106.242 39.9487C101.279 39.9487 97.2629 43.3884 97.2629 51.0243C97.2629 58.6603 101.386 62.4881 106.242 62.4881C111.097 62.4881 115.221 58.6659 115.221 51.0243Z" fill="black"/>
<path d="M130.694 44.7188C134.469 44.7188 137.254 46.3613 138.318 49.0388L135.813 50.2988C134.965 48.5016 133.116 47.5088 130.612 47.5088C127.992 47.5088 126.259 48.5409 126.259 50.2594C126.259 51.75 127.22 52.6303 129.418 53.0887L132.385 53.6625C136.817 54.5428 138.944 56.4919 138.944 59.5491C138.944 63.18 135.708 65.6634 130.93 65.6634C126.766 65.6634 123.8 64.0575 122.336 61.0763L124.88 59.7375C125.921 61.8019 127.963 62.91 130.853 62.91C133.78 62.91 135.748 61.6472 135.748 59.7375C135.748 58.0556 134.747 57.1388 132.396 56.6409L128.891 55.9547C125.113 55.1897 123.071 53.28 123.071 50.49C123.071 47.2022 126.193 44.7188 130.703 44.7188H130.694Z" fill="black"/>
<path d="M149.075 65.5481C145.606 65.5481 143.95 63.4387 143.95 60.1593V37.0771H147.266V60.0046C147.266 61.7625 148.23 62.6034 149.849 62.6034C149.863 62.6034 149.878 62.6034 149.895 62.6034C150.32 62.6034 150.731 62.5471 151.123 62.4431L151.089 62.4515V65.2809C150.49 65.4356 149.798 65.534 149.086 65.5481H149.075Z" fill="black"/>
<path d="M153.894 55.1503C153.894 48.8447 158.057 44.7188 163.258 44.7188C168.423 44.7188 172.583 48.8447 172.583 55.1503C172.583 61.5712 168.383 65.6972 163.258 65.6972C158.094 65.7 153.894 61.5712 153.894 55.1503ZM169.152 55.1503C169.152 49.9922 166.454 47.5903 163.255 47.5903C160.019 47.5903 157.32 49.9978 157.32 55.1503C157.32 60.3028 159.98 62.8312 163.255 62.8312C166.491 62.8312 169.152 60.3084 169.152 55.1503Z" fill="black"/>
</g>
<defs>
<clipPath id="clip0_87_831">
<rect width="173" height="90" fill="white"/>
</clipPath>
</defs>
</svg>
